<?xml version="1.0" encoding="UTF-8"?> <svg xmlns="http://www.w3.org/2000/svg" id="Layer_2" data-name="Layer 2" viewBox="0 0 1177.29 193.24"><defs><style> .cls-1 { fill: #84c342; } .cls-2 { fill: #14663c; } </style></defs><g id="Layer_1-2" data-name="Layer 1"><path class="cls-2" d="m52.22,0C23.38,0,0,23.39,0,52.23s23.38,52.23,52.22,52.23h52.22v-52.23C104.45,23.39,81.07,0,52.22,0m17.87,70.09h-17.87c-9.87,0-17.86-8-17.86-17.87s8-17.86,17.86-17.86,17.87,8,17.87,17.86v17.87Zm-46.39,82.77c0,22.3,18.08,40.38,40.38,40.38s40.37-18.08,40.37-40.38v-40.37h-40.37c-22.3,0-40.38,18.08-40.38,40.37m53.54,0c0,8.23-6.68,14.91-14.91,14.91s-14.9-6.68-14.9-14.91,6.67-14.91,14.9-14.91h14.91v14.91Z"></path><path class="cls-1" d="m165.25,0c-28.84,0-52.22,23.38-52.22,52.23v52.22h52.22c28.85,0,52.23-23.38,52.23-52.22S194.1,0,165.25,0m-.44,70.09h-17.86v-17.86c0-9.87,8-17.87,17.86-17.87s17.87,8,17.87,17.87-8,17.86-17.87,17.86m-11.41,42.4h-40.38v40.38c0,22.3,18.08,40.37,40.38,40.37s40.38-18.08,40.38-40.37-18.08-40.38-40.38-40.38m.87,55.28c-8.23,0-14.91-6.68-14.91-14.91v-14.9h14.91c8.23,0,14.91,6.67,14.91,14.9s-6.68,14.91-14.91,14.91"></path><path d="m233.05,189.76v-96.42h46.67c17.25,0,28.89,9.76,28.89,24.61,0,9.09-4.15,15.24-12.17,18.99,12.97,4.41,19.39,12.84,19.39,25.54s-7.76,23-19.52,25.95c-3.61.93-8.02,1.34-12.98,1.34h-50.28Zm28.88-79.03v21.66h8.16c7.35,0,11.9-4.28,11.9-10.96s-4.41-10.7-11.63-10.7h-8.43Zm0,38.25v23.94h12.3c8.16,0,13.11-4.54,13.11-11.77,0-7.76-5.08-12.17-14.45-12.17h-10.96Zm173.97-55.63v55.5c0,9.23-1.6,16.58-4.82,22.47-7.35,12.97-23,20.19-43.59,20.19-19.53,0-34.77-7.22-42.53-20.19-3.08-5.22-4.82-13.24-4.82-22.47v-55.5h28.75v55.1c0,12.04,7.62,19.66,19.12,19.66s19.12-7.62,19.12-19.66v-55.1h28.75Zm30.75,96.42v-96.42h43.19c27.28,0,48.14,21.4,48.14,49.35s-19.39,47.07-46.94,47.07h-44.39Zm28.88-75.69v54.7h9.49c14.58,0,24.07-10.7,24.07-27.15,0-17.38-9.5-27.55-25.68-27.55h-7.89Zm91.33,75.69v-96.42h43.19c27.28,0,48.15,21.4,48.15,49.35s-19.39,47.07-46.94,47.07h-44.4Zm28.89-75.69v54.7h9.49c14.58,0,24.07-10.7,24.07-27.15,0-17.38-9.49-27.55-25.68-27.55h-7.89Zm89.59,75.69v-96.42h64.99v20.19h-36.11v17.12h34.37v19.79h-34.5v19.13h37.04v20.19h-65.79Zm97.22,0v-96.42h46c18.06,0,30.36,11.23,30.36,27.68,0,10.57-4.68,17.79-13.91,22.2,3.21,1.47,4.68,2.68,7.22,6.02,1.47,2,2.94,4.28,4.28,6.55,1.87,3.48,4.95,10.03,9.36,19.66l6.56,14.31h-29.55l-3.48-8.56c-3.88-9.63-9.23-19.79-12.57-24.34-2.94-4.14-6.69-6.02-11.9-6.02h-3.48v38.91h-28.89Zm28.75-78.5v22.6h6.95c7.49,0,11.9-4.14,11.9-11.23s-4.68-11.37-12.57-11.37h-6.29Zm86.53,78.5v-96.42h62.32v20.19h-33.43v17.65h32.9v19.8h-32.9v38.78h-28.88Zm92.54,0v-96.42h28.89v75.69h37.98v20.73h-66.87Zm67.95-96.42h34.64l14.58,23.81c1.61,2.68,2.28,4.95,2.41,8.56.27-3.61.94-6.15,2.41-8.56l13.91-23.81h31.02l-35.44,52.82v43.6h-28.75v-44l-34.77-52.42Z"></path></g></svg> 